<svg width="512" height="512" viewBox="0 0 512 512" fill="none" xmlns="http://www.w3.org/2000/svg">
<rect width="512" height="512" fill="white"/>
<path d="M256 486C383.026 486 486 383.026 486 256C486 128.975 383.026 26 256 26C128.975 26 26 128.975 26 256C26 383.026 128.975 486 256 486Z" fill="#C5F2F4"/>
<g clip-path="url(#clip0)">
<path d="M245.712 215.162C243.045 215.162 240.883 213 240.883 210.333V179.681C240.883 177.014 243.045 174.852 245.712 174.852C248.378 174.852 250.54 177.014 250.54 179.681V210.333C250.54 213 248.378 215.162 245.712 215.162Z" fill="#EEBEA4"/>
<path d="M391.46 215.162C388.793 215.162 386.631 213 386.631 210.333V179.681C386.631 177.014 388.793 174.852 391.46 174.852C394.127 174.852 396.289 177.014 396.289 179.681V210.333C396.289 213 394.127 215.162 391.46 215.162Z" fill="#EEBEA4"/>
<path d="M355.024 215.162C352.357 215.162 350.195 213 350.195 210.333V179.681C350.195 177.014 352.357 174.852 355.024 174.852C357.69 174.852 359.852 177.014 359.852 179.681V210.333C359.852 213 357.69 215.162 355.024 215.162Z" fill="#EEBEA4"/>
<path d="M318.584 215.162C315.917 215.162 313.756 213 313.756 210.333V179.681C313.756 177.014 315.917 174.852 318.584 174.852C321.251 174.852 323.413 177.014 323.413 179.681V210.333C323.414 213 321.252 215.162 318.584 215.162Z" fill="#EEBEA4"/>
<path d="M282.151 215.162C279.484 215.162 277.322 213 277.322 210.333V179.681C277.322 177.014 279.484 174.852 282.151 174.852C284.818 174.852 286.98 177.014 286.98 179.681V210.333C286.98 213 284.818 215.162 282.151 215.162Z" fill="#EEBEA4"/>
<path d="M391.459 195.429H245.712C243.045 195.429 240.883 193.267 240.883 190.6C240.883 187.933 243.045 185.771 245.712 185.771H391.459C394.126 185.771 396.288 187.933 396.288 190.6C396.288 193.267 394.126 195.429 391.459 195.429Z" fill="#EEBEA4"/>
<path d="M133.969 175.188H151.312V219.33H133.969V175.188Z" fill="#819298"/>
<path d="M205.997 175.188H223.34V219.33H205.997V175.188Z" fill="#819298"/>
<path d="M110.88 228.5H401.118V396.677H110.88V228.5Z" fill="#EAF3EE"/>
<path d="M110.88 228.5H401.118V256.12H110.88V228.5Z" fill="#1C85E6"/>
<path d="M401.119 210.338H110.881C102.663 210.338 96 217.001 96 225.219C96 233.437 102.663 240.1 110.881 240.1H401.119C409.337 240.1 416 233.437 416 225.219C416 217.001 409.337 210.338 401.119 210.338Z" fill="#86A0AF"/>
<path d="M157.74 235.738C160.431 238.43 164.153 240.097 168.261 240.097H110.879C106.771 240.097 103.05 238.43 100.359 235.738C97.6675 233.047 96 229.325 96 225.218C96 216.996 102.664 210.338 110.879 210.338H168.26C160.044 210.338 153.381 216.996 153.381 225.218C153.381 229.325 155.049 233.047 157.74 235.738V235.738Z" fill="#738B95"/>
<path d="M174.594 290.223V337.624C174.594 342.092 170.969 345.717 166.5 345.717H134.797C131.59 345.717 128.815 343.85 127.508 341.146C126.993 340.077 126.703 338.886 126.703 337.624V290.223C126.703 285.754 130.328 282.136 134.796 282.136H166.5C170.498 282.136 173.827 285.033 174.471 288.851C174.555 289.296 174.594 289.753 174.594 290.223Z" fill="#DAF1F4"/>
<path d="M174.472 288.851L151.216 345.717H134.797C131.591 345.717 128.816 343.85 127.508 341.146L151.634 282.136H166.501C170.499 282.136 173.828 285.033 174.472 288.851V288.851Z" fill="white"/>
<path d="M174.592 307.532V337.626C174.592 342.094 170.967 345.719 166.499 345.719H158.972L174.592 307.532Z" fill="white"/>
<path d="M166.502 350.226H134.796C127.85 350.226 122.199 344.575 122.199 337.628V290.226C122.199 283.28 127.85 277.628 134.796 277.628H166.502C173.448 277.628 179.099 283.28 179.099 290.226V337.628C179.099 344.575 173.448 350.226 166.502 350.226V350.226ZM134.796 286.642C132.821 286.642 131.213 288.25 131.213 290.226V337.628C131.213 339.604 132.821 341.212 134.796 341.212H166.502C168.477 341.212 170.085 339.605 170.085 337.628V290.226C170.085 288.25 168.477 286.642 166.502 286.642H134.796Z" fill="#86A0AF"/>
<path d="M126.703 293.903H174.593V302.917H126.703V293.903Z" fill="#86A0AF"/>
<path d="M192.607 282.136H245.716V391.889H192.607V282.136Z" fill="#738B95"/>
<path d="M245.715 396.578C243.048 396.578 240.886 394.416 240.886 391.75V286.967H197.436V391.749C197.436 394.416 195.274 396.578 192.607 396.578C189.94 396.578 187.779 394.416 187.779 391.749V282.138C187.779 279.471 189.94 277.31 192.607 277.31H245.715C248.382 277.31 250.544 279.471 250.544 282.138V391.75C250.544 394.416 248.382 396.578 245.715 396.578V396.578Z" fill="#86A0AF"/>
<path d="M219.163 340.597H206.535C203.868 340.597 201.706 338.435 201.706 335.768C201.706 333.101 203.868 330.939 206.535 330.939H219.163C221.83 330.939 223.991 333.101 223.991 335.768C223.991 338.435 221.83 340.597 219.163 340.597Z" fill="#86A0AF"/>
<path d="M311.649 290.228V337.63C311.649 342.098 308.024 345.723 303.556 345.723H271.852C268.646 345.723 265.871 343.856 264.563 341.152C264.048 340.083 263.758 338.892 263.758 337.63V290.228C263.758 285.76 267.383 282.142 271.851 282.142H303.555C307.553 282.142 310.883 285.039 311.526 288.857C311.61 289.302 311.649 289.758 311.649 290.228V290.228Z" fill="#DAF1F4"/>
<path d="M311.527 288.857L288.271 345.723H271.852C268.646 345.723 265.871 343.856 264.564 341.152L288.689 282.142H303.556C307.554 282.142 310.883 285.039 311.527 288.857V288.857Z" fill="white"/>
<path d="M311.647 307.538V337.632C311.647 342.1 308.022 345.725 303.554 345.725H296.027L311.647 307.538Z" fill="white"/>
<path d="M303.557 350.226H271.852C264.905 350.226 259.254 344.575 259.254 337.628V290.226C259.254 283.28 264.905 277.628 271.852 277.628H303.557C310.504 277.628 316.155 283.28 316.155 290.226V337.628C316.155 344.575 310.504 350.226 303.557 350.226ZM271.852 286.642C269.876 286.642 268.269 288.25 268.269 290.226V337.628C268.269 339.604 269.876 341.212 271.852 341.212H303.557C305.533 341.212 307.14 339.605 307.14 337.628V290.226C307.14 288.25 305.533 286.642 303.557 286.642H271.852Z" fill="#86A0AF"/>
<path d="M263.759 293.902H311.649V302.916H263.759V293.902Z" fill="#86A0AF"/>
<path d="M329.663 282.136H382.771V391.889H329.663V282.136Z" fill="#738B95"/>
<path d="M382.771 396.578C380.104 396.578 377.942 394.416 377.942 391.75V286.967H334.492V391.749C334.492 394.416 332.33 396.578 329.663 396.578C326.996 396.578 324.834 394.416 324.834 391.749V282.138C324.834 279.471 326.996 277.31 329.663 277.31H382.771C385.438 277.31 387.6 279.471 387.6 282.138V391.75C387.6 394.416 385.437 396.578 382.771 396.578V396.578Z" fill="#86A0AF"/>
<path d="M356.215 340.597H343.587C340.92 340.597 338.759 338.435 338.759 335.768C338.759 333.101 340.92 330.939 343.587 330.939H356.215C358.882 330.939 361.044 333.101 361.044 335.768C361.044 338.435 358.882 340.597 356.215 340.597Z" fill="#86A0AF"/>
<path d="M223.338 184.178H130.67C122.913 184.178 116.625 177.89 116.625 170.133V125.64C116.625 117.883 122.913 111.595 130.67 111.595H223.339C231.096 111.595 237.384 117.883 237.384 125.64V170.133C237.383 177.89 231.095 184.178 223.338 184.178Z" fill="#F4DD45"/>
<path d="M146.493 138.055H207.514V151.105H146.493V138.055Z" fill="white"/>
<path d="M146.493 144.497H207.514V157.547H146.493V144.497Z" fill="#86A0AF"/>
<path d="M146.493 171.247C143.826 171.247 141.664 169.086 141.664 166.419V129.356C141.664 126.689 143.826 124.527 146.493 124.527C149.16 124.527 151.322 126.689 151.322 129.356V166.419C151.322 169.085 149.16 171.247 146.493 171.247Z" fill="#DF75A5"/>
<path d="M207.512 171.245C204.845 171.245 202.683 169.083 202.683 166.417V135.095C202.683 132.428 204.845 130.267 207.512 130.267C210.178 130.267 212.34 132.428 212.34 135.095V166.416C212.341 169.083 210.178 171.245 207.512 171.245V171.245Z" fill="#DF75A5"/>
<path d="M351.711 114.046C354.483 114.046 357.124 114.592 359.543 115.574C363.859 104.788 374.398 97.1655 386.725 97.1655C402.893 97.1655 416 110.272 416 126.441C416 142.609 402.893 155.716 386.725 155.716C379.354 155.716 358.014 155.716 351.711 155.716C340.205 155.716 330.877 146.387 330.877 134.881C330.877 123.374 340.205 114.046 351.711 114.046V114.046Z" fill="#B1E4F9"/>
<path d="M408.269 106.624C404.361 104.679 399.95 103.591 395.289 103.591C382.965 103.591 372.425 111.214 368.105 121.999C365.691 121.02 363.044 120.473 360.276 120.473C348.77 120.473 339.44 129.802 339.44 141.309C339.44 146.182 341.114 150.664 343.915 154.212C336.273 151.121 330.877 143.633 330.877 134.883C330.877 123.377 340.206 114.054 351.713 114.054C354.481 114.054 357.121 114.595 359.542 115.58C363.856 104.796 374.396 97.1724 386.726 97.1724C395.25 97.1717 402.918 100.81 408.269 106.624V106.624Z" fill="#93D8E4"/>
<path d="M401.119 385.08H110.881C102.663 385.08 96 391.743 96 399.961C96 408.179 102.663 414.841 110.881 414.841H401.119C409.337 414.841 416 408.179 416 399.961C416 391.743 409.337 385.08 401.119 385.08Z" fill="#BCDF95"/>
<path d="M157.74 410.48C160.431 413.171 164.153 414.839 168.261 414.839H110.879C106.771 414.839 103.05 413.171 100.359 410.48C97.6675 407.789 96 404.067 96 399.959C96 391.738 102.664 385.08 110.879 385.08H168.26C160.044 385.08 153.381 391.738 153.381 399.959C153.381 404.067 155.049 407.789 157.74 410.48V410.48Z" fill="#93C8A5"/>
</g>
<defs>
<clipPath id="clip0">
<rect width="320" height="320" fill="white" transform="translate(96 96)"/>
</clipPath>
</defs>
</svg>
